<svg xmlns="http://www.w3.org/2000/svg" width="14" height="14" fill="none" viewBox="0 0 14 14"><path fill="#2D3748" fill-rule="evenodd" d="M8.167 1.167H3.5a1.167 1.167 0 0 0-1.167 1.166v9.334A1.167 1.167 0 0 0 3.5 12.833h7a1.167 1.167 0 0 0 1.167-1.166v-7H8.75a.583.583 0 0 1-.583-.584V1.167zm-3.5 6.125a.292.292 0 1 0 0 .583h4.666a.292.292 0 1 0 0-.583H4.667zm-.292 2.625c0-.161.13-.292.292-.292h4.666a.292.292 0 1 1 0 .583H4.667a.292.292 0 0 1-.292-.291zm.292-4.959a.292.292 0 1 0 0 .584h1.166a.292.292 0 1 0 0-.584H4.667z" clip-rule="evenodd"/><path fill="#2D3748" d="M8.75 1.167V3.5c0 .322.261.583.583.583h2.334"/></svg>