<svg xmlns="http://www.w3.org/2000/svg" width="14" height="14" fill="none"><path fill="#2D3748" d="M7 7.875a.875.875 0 1 1 0-1.75.875.875 0 0 1 0 1.75zM6.692 9.62c.102.123.205.242.308.356.103-.114.206-.232.308-.356-.205.005-.41.005-.616 0zm-1.164-.07a12.062 12.062 0 0 1-1.333-.215 6.34 6.34 0 0 0-.099.593c-.11.923.044 1.484.279 1.62.235.135.798-.012 1.543-.569.153-.115.308-.242.463-.382a12.06 12.06 0 0 1-.853-1.047zm4.277-.215c-.419.093-.865.166-1.333.215-.265.364-.55.714-.853 1.047.155.14.31.267.463.382.745.557 1.308.704 1.543.568.235-.135.39-.696.28-1.62a6.628 6.628 0 0 0-.1-.592zm.845-.226c.337 1.54.16 2.765-.588 3.197-.747.431-1.897-.028-3.062-1.09-1.165 1.062-2.315 1.52-3.063 1.09-.747-.432-.924-1.657-.588-3.197C1.847 8.63.875 7.863.875 7s.972-1.63 2.474-2.108c-.336-1.54-.16-2.765.588-3.197.748-.432 1.898.028 3.063 1.09 1.165-1.062 2.315-1.521 3.063-1.09.747.432.924 1.657.588 3.197 1.502.478 2.474 1.245 2.474 2.108s-.972 1.63-2.474 2.108zM6.38 3.404a6.628 6.628 0 0 0-.462-.382c-.745-.557-1.308-.704-1.543-.569-.235.136-.39.697-.28 1.62.024.191.057.389.1.593.44-.096.885-.168 1.333-.215.277-.38.563-.731.853-1.047zM8.473 4.45c.468.05.914.122 1.333.215a6.34 6.34 0 0 0 .099-.593c.11-.923-.044-1.484-.279-1.62-.235-.135-.798.012-1.543.569-.16.12-.315.247-.463.382.29.316.576.666.853 1.047zm-1.164-.073A11.138 11.138 0 0 0 7 4.023c-.103.114-.206.232-.308.355.205-.004.41-.004.616 0zm-2.424 4.2c-.107-.176-.21-.354-.308-.534-.056.15-.107.298-.154.444.15.033.304.062.461.09zm1.127.136c.658.049 1.32.049 1.978 0 .372-.546.703-1.12.99-1.714a13.356 13.356 0 0 0-.99-1.714 13.357 13.357 0 0 0-1.978 0A13.356 13.356 0 0 0 5.02 7c.287.595.618 1.168.99 1.714zm3.413-2.758c.056-.15.107-.298.154-.444a10.47 10.47 0 0 0-.461-.09c.106.176.209.354.307.534zm-5.848-.218a6.432 6.432 0 0 0-.563.21C2.16 6.315 1.75 6.728 1.75 7c0 .271.408.685 1.264 1.052.176.076.364.146.562.21.13-.409.29-.832.481-1.262a12.063 12.063 0 0 1-.481-1.262zm.846-.226c.047.146.098.294.154.443.099-.18.201-.357.308-.532a8.799 8.799 0 0 0-.462.089zm6.002 2.75c.199-.064.386-.134.563-.21.854-.367 1.263-.78 1.263-1.052 0-.271-.408-.685-1.264-1.052a6.63 6.63 0 0 0-.562-.21c-.13.409-.29.832-.481 1.262.191.43.352.853.481 1.262zm-.846.226a11.177 11.177 0 0 0-.154-.443c-.099.18-.201.357-.308.532.158-.027.312-.056.462-.089z"/></svg>