<svg width="24" height="24" fill="none">
  <path d="M9.95502 12.3468c.34358.4593.78188.8394 1.28528 1.1144.5033.275 1.0599.4385 1.632.4795.5722.041 1.1464-.0416 1.6838-.2421.5374-.2004 1.0254-.5141 1.4309-.9198l2.4-2.4c.7287-.75439 1.1318-1.7648 1.1227-2.81358-.0091-1.04879-.4298-2.05204-1.1714-2.79367-.7416-.74163-1.7449-1.16231-2.7937-1.17142-1.0488-.00912-2.0592.39406-2.8136 1.12269l-1.376 1.368m1.7999 4.65588c-.3435-.4593-.7818-.83933-1.2852-1.11433-.5034-.27501-1.06-.43854-1.6321-.47952-.57209-.04097-1.14633.04158-1.68373.24204-.53741.20047-1.02542.51417-1.43093.91981l-2.4 2.4c-.72863.7544-1.1318 1.7648-1.12269 2.8136.00911 1.0488.42979 2.0521 1.17142 2.7937.74163.7416 1.74488 1.1623 2.79367 1.1714 1.04879.0091 2.0592-.394 2.81356-1.1227l1.368-1.368" stroke="currentcolor" stroke-width="2" stroke-linecap="round" stroke-linejoin="round"/>
</svg>