<svg xmlns="http://www.w3.org/2000/svg" width="24" height="24" fill="none" viewBox="0 0 24 24"><path fill="#4A5568" d="M12 0C5.372 0 0 5.372 0 12s5.372 12 12 12 12-5.372 12-12S18.628 0 12 0zM9.062 16.974h-2.43v-7.82h2.43v7.82zm-1.23-8.78c-.767 0-1.263-.544-1.263-1.217 0-.686.511-1.213 1.295-1.213.784 0 1.263.527 1.279 1.213 0 .673-.495 1.217-1.31 1.217zm10.105 8.78h-2.43V12.64c0-1.009-.352-1.694-1.23-1.694-.672 0-1.07.464-1.247.91-.065.159-.081.384-.081.608v4.508h-2.431v-5.325c0-.976-.032-1.792-.064-2.495h2.111l.111 1.087h.049c.32-.51 1.104-1.263 2.415-1.263 1.599 0 2.797 1.071 2.797 3.374v4.624z"/></svg>