<svg width="24" height="24" fill="none">
  <path d="M20 10c0 6.2222-8 11.5556-8 11.5556S4 16.2222 4 10c0-2.12173.84285-4.15656 2.34315-5.65685C7.84344 2.84285 9.87827 2 12 2c2.1217 0 4.1566.84285 5.6569 2.34315C19.1571 5.84344 20 7.87827 20 10z" stroke="currentcolor" stroke-width="2" stroke-linecap="round" stroke-linejoin="round"/>
  <path d="M12 12.6667c1.4728 0 2.6667-1.1939 2.6667-2.6667 0-1.47276-1.1939-2.66667-2.6667-2.66667S9.33333 8.52724 9.33333 10c0 1.4728 1.19387 2.6667 2.66667 2.6667z" stroke="currentcolor" stroke-width="2" stroke-linecap="round" stroke-linejoin="round"/>
</svg>