<svg xmlns="http://www.w3.org/2000/svg" width="61" height="24" fill="none" viewBox="0 0 61 24"><path fill="#718096" d="M15.775 3.158a9.077 9.077 0 0 0-2.926-1.938C11.73.753 10.515.52 9.205.52c-1.311 0-2.526.233-3.645.7a9.06 9.06 0 0 0-2.925 1.938A8.833 8.833 0 0 0 .694 6.065C.23 7.178 0 8.38 0 9.673c0 1.292.23 2.499.694 3.619a8.925 8.925 0 0 0 1.942 2.933 8.954 8.954 0 0 0 2.926 1.95c1.119.467 2.333.7 3.644.7s2.526-.233 3.645-.7a8.97 8.97 0 0 0 2.925-1.95 8.905 8.905 0 0 0 1.941-2.933c.462-1.12.694-2.327.694-3.62 0-1.292-.232-2.494-.694-3.605a8.829 8.829 0 0 0-1.942-2.909zm-.682 9.152a6.399 6.399 0 0 1-1.286 2.171 5.925 5.925 0 0 1-2.004 1.448c-.774.343-1.64.515-2.598.515s-1.825-.172-2.598-.515a5.897 5.897 0 0 1-2.005-1.448 6.374 6.374 0 0 1-1.285-2.171 7.813 7.813 0 0 1-.442-2.639c0-.932.148-1.806.442-2.625A6.266 6.266 0 0 1 4.602 4.9a5.98 5.98 0 0 1 2.005-1.435c.773-.343 1.64-.515 2.598-.515s1.824.172 2.598.515c.773.344 1.44.822 2.004 1.435a6.29 6.29 0 0 1 1.286 2.147c.293.819.441 1.693.441 2.625 0 .934-.146 1.813-.441 2.639zM30.451 6.127c-.883-.58-1.92-.872-3.114-.872-.942 0-1.807.23-2.597.687a5.075 5.075 0 0 0-1.892 1.939V5.5h-2.37v17.74h2.547v-6.944c.487.785 1.101 1.39 1.84 1.815.74.425 1.564.638 2.472.638 1.194 0 2.232-.29 3.114-.87.883-.581 1.568-1.38 2.055-2.393.487-1.014.73-2.176.73-3.485 0-1.308-.243-2.47-.73-3.484-.487-1.012-1.172-1.81-2.055-2.391zm-.933 9.239c-.714.785-1.617 1.178-2.711 1.178-.706 0-1.345-.18-1.916-.54-.571-.36-1.026-.88-1.362-1.559-.337-.679-.505-1.492-.505-2.441 0-.981.168-1.807.505-2.48.336-.67.79-1.185 1.362-1.544a3.528 3.528 0 0 1 1.916-.54c1.092 0 1.997.396 2.711 1.19.715.794 1.072 1.919 1.072 3.374 0 1.456-.357 2.576-1.072 3.362zM45.985 7.353a5.882 5.882 0 0 0-2.042-1.545c-.8-.368-1.702-.553-2.71-.553-1.227 0-2.321.29-3.279.872a6.292 6.292 0 0 0-2.27 2.368c-.555.998-.833 2.143-.833 3.436 0 1.357.269 2.552.808 3.581.539 1.032 1.29 1.829 2.257 2.393.967.564 2.097.846 3.392.846 1.58 0 2.912-.412 3.997-1.24 1.085-.825 1.786-1.958 2.106-3.397H44.89c-.203.85-.619 1.513-1.25 1.987-.63.476-1.424.713-2.382.713-.807 0-1.496-.197-2.067-.59-.572-.393-1.009-.951-1.311-1.681-.232-.557-.374-1.2-.427-1.926h9.96c.117-1.063.05-2.04-.201-2.933a6.175 6.175 0 0 0-1.226-2.33zm-8.503 3.62c.07-.61.2-1.158.407-1.632.312-.71.748-1.26 1.312-1.644.563-.385 1.224-.576 1.98-.576 1.042 0 1.879.339 2.51 1.018.63.68.97 1.624 1.02 2.834h-7.23zM50.893 5.49l-1.276 1.242v11.773h2.547V7.795h6.102v10.71h2.548V6.73l-1.274-1.24h-8.647z"/></svg>