<svg xmlns="http://www.w3.org/2000/svg" width="48" height="48" fill="none" viewBox="0 0 48 48"><path fill="#EDF2F7" d="M0 6a6 6 0 0 1 6-6h36a6 6 0 0 1 6 6v36a6 6 0 0 1-6 6H6a6 6 0 0 1-6-6V6z"/><g clip-path="url(#a)"><path stroke="#718096" stroke-linecap="round" stroke-linejoin="round" stroke-width="2" d="M27.75 30.75v-1.5a3 3 0 0 0-3-3h-6a3 3 0 0 0-3 3v1.5m16.5 0v-1.5A3 3 0 0 0 30 26.348m-3-9a3 3 0 0 1 0 5.812m-2.25-2.91a3 3 0 1 1-6 0 3 3 0 0 1 6 0z"/></g><defs><clipPath id="a"><path fill="#fff" d="M0 0h18v18H0z" transform="translate(15 15)"/></clipPath></defs></svg>