<svg width="20" height="20" fill="none">
  <path d="M15.0258 13.8475l3.5692 3.5684-1.1792 1.1791-3.5683-3.5691c-1.3277 1.0643-2.9792 1.6432-4.68083 1.6408-4.14 0-7.5-3.36-7.5-7.50001 0-4.14 3.36-7.5 7.5-7.5 4.14003 0 7.50003 3.36 7.50003 7.5.0024 1.70171-.5765 3.35311-1.6409 4.68081zm-1.6716-.6183c1.0576-1.0876 1.6482-2.5455 1.6458-4.06251 0-3.22334-2.6108-5.83334-5.83333-5.83334-3.22333 0-5.83333 2.61-5.83333 5.83334C3.33334 12.3892 5.94334 15 9.16667 15c1.51703.0024 2.97493-.5882 4.06253-1.6458l.125-.125z" fill="currentcolor"/>
</svg>