<svg xmlns="http://www.w3.org/2000/svg" width="24" height="24" fill="none" viewBox="0 0 24 24"><path fill="#4A5568" d="M12 0C5.372 0 0 5.372 0 12s5.372 12 12 12 12-5.372 12-12S18.628 0 12 0zm4.881 9.83a6.4 6.4 0 0 1 .006.305c0 3.125-2.376 6.726-6.723 6.726A6.668 6.668 0 0 1 6.54 15.8c.184.022.373.031.564.031a4.734 4.734 0 0 0 2.935-1.011 2.369 2.369 0 0 1-2.207-1.64c.353.067.718.053 1.066-.042a2.365 2.365 0 0 1-1.896-2.317v-.029a2.37 2.37 0 0 0 1.07.296 2.362 2.362 0 0 1-.73-3.157 6.72 6.72 0 0 0 4.87 2.471 2.364 2.364 0 0 1 4.028-2.156 4.747 4.747 0 0 0 1.5-.574 2.375 2.375 0 0 1-1.038 1.309 4.748 4.748 0 0 0 1.357-.374c-.317.475-.716.89-1.179 1.224z"/></svg>