<svg width="32" height="32" fill="none"><path fill="#2D3748" d="M16 .64C7.517.64.64 7.517.64 16S7.517 31.36 16 31.36 31.36 24.483 31.36 16 24.483.64 16 .64zm6.248 12.582c.006.132.008.263.008.39 0 4-3.042 8.61-8.607 8.61a8.536 8.536 0 0 1-4.636-1.36c.235.03.476.04.721.04a6.059 6.059 0 0 0 3.757-1.294 3.032 3.032 0 0 1-2.825-2.1c.452.087.92.069 1.364-.052a3.027 3.027 0 0 1-2.427-2.966v-.037a3.04 3.04 0 0 0 1.371.379 3.024 3.024 0 0 1-.936-4.042 8.601 8.601 0 0 0 6.235 3.164 3.026 3.026 0 0 1 5.156-2.76 6.073 6.073 0 0 0 1.92-.735 3.04 3.04 0 0 1-1.33 1.675 6.078 6.078 0 0 0 1.738-.478 6.135 6.135 0 0 1-1.51 1.566z"/></svg>