<svg width="14" height="14" fill="none">
  <path d="M11.6666 12.8333H2.33325v-1.1667c0-.7735.30729-1.5154.85427-2.06235.54698-.54698 1.28885-.85427 2.0624-.85427h3.5c.77355 0 1.51538.30729 2.06238.85427.547.54695.8543 1.28885.8543 2.06235v1.1667zM6.99992 7.58331c-.45963 0-.91475-.09053-1.33939-.26642-.42464-.17589-.81048-.4337-1.13549-.7587-.325-.32501-.58281-.71085-.7587-1.13548-.17589-.42464-.26642-.87977-.26642-1.3394 0-.45962.09053-.91475.26642-1.33939.17589-.42464.4337-.81048.7587-1.13548.32501-.32501.71085-.58281 1.13549-.758705.42464-.175892.87976-.266422 1.33939-.266422.92826 0 1.81849.368749 2.47487 1.025127.65641.65638 1.02511 1.54662 1.02511 2.47487 0 .92826-.3687 1.8185-1.02511 2.47488-.65638.65637-1.54661 1.02512-2.47487 1.02512z" fill="currentcolor"/>
</svg>