<svg width="32" height="32" fill="none">
  <path d="M15.9999.640015C7.51669.640015.639893 7.51682.639893 16c0 8.4832 6.876797 15.36 15.360007 15.36 8.4832 0 15.36-6.8768 15.36-15.36 0-8.48318-6.8768-15.359985-15.36-15.359985zm6.248 12.582385c.0064.1312.008.2624.008.3904 0 4-3.0416 8.6096-8.6064 8.6096-1.6443.0027-3.2545-.4695-4.63681-1.36.2352.0288.4768.04.7216.04 1.41761 0 2.72161-.4816 3.75681-1.2944-.6309-.0124-1.2421-.2213-1.7486-.5976-.5065-.3762-.883-.9012-1.077-1.5016.453.0862.9198.0681 1.3648-.0528-.6847-.1384-1.3005-.5095-1.7429-1.0501-.44236-.5407-.68414-1.2177-.68431-1.9163v-.0368c.40801.2256.87521.3632 1.37121.3792-.6419-.4273-1.09635-1.0837-1.27034-1.835-.17398-.7512-.05439-1.5406.33434-2.2066.7599.9344 1.7076 1.6988 2.7817 2.2437 1.0741.5449 2.2506.8582 3.4535.9195-.1529-.6491-.0871-1.3305.1872-1.9384.2743-.6078.7418-1.108 1.3297-1.4228.5879-.3147 1.2634-.4264 1.9213-.3177.658.1087 1.2616.4318 1.717.9189.6771-.1339 1.3264-.3823 1.92-.7344-.2257.701-.6981 1.2963-1.3296 1.6752.5997-.0722 1.1854-.2335 1.7376-.4784-.4056.6078-.9166 1.1383-1.5088 1.5664z" fill="#2D3748"/>
</svg>